{"title":"Nubiles.Lolly.Boobies.And.Pussy.XXX.1080p.MP4KTR.mp4","uid":10614786,"size":924927059,"categoryP":"porn","categoryS":"movies","magnet":"?xt=urn:btih:a627a51ff32fa1100a7c604c13a3b11603261c74&amp;dn=Nubiles.Lolly.Boobies.And.Pussy.XXX.1080p.MP4KTR.mp4&amp;tr=udp%3A%2F%2Ftracker.openbittorrent.com%3A80&amp;tr=udp%3A%2F%2Fopen.demonii.com%3A1337&amp;tr=udp%3A%2F%2Ftracker.coppersurfer.tk%3A6969&amp;tr=udp%3A%2F%2Fexodus.desync.com%3A6969","seeders":0,"leechers":1,"uploader":"XXXmegathor","files":1,"time":1406090782,"description":"Nubiles.Lolly.Boobies.And.Pussy.XXX.1080p.MP4KTR\n\nSCREENIES &lt;a href=&quot;\nhttp://xxxtrapics.com/image/M1&quot; rel=&quot;nofollow&quot; target=&quot;_NEW&quot;&gt;\nhttp://xxxtrapics.com/image/M1&lt;/a&gt;\n\n\nDuration : 16mn 42s\nDuration_LastFrame : -6ms\nBit rate mode : Variable\nBit rate : 7 222 Kbps\nWidth : 1 920 pixels\nHeight : 1 080 pixels\nDisplay aspect ratio : 16:9\nFrame rate mode : Constant\nFrame rate : 25.000 fps\nColor space : YUV\nChroma subsampling : 4:2:0\nBit depth : 8 bits\nScan type : Progressive\nBits/(Pixel*Frame) : 0.139\nStream size : 863 MiB (98%)\nWriting library : x264 core 142\nEncoding settings : cabac=1 / ref=2 / deblock=1:-1:-1 / analyse=0x1:0x111 / me=umh / subme=8 / psy=1 / psy_rd=1.00:0.15 / mixed_ref=1 / me_range=16 / chroma_me=1 / trellis=1 / 8x8dct=0 / cqm=0 / deadzone=21,11 / fast_pskip=1 / chroma_qp_offset=-3 / threads=12 / lookahead_threads=2 / sliced_threads=0 / nr=0 / decimate=1 / interlaced=0 / bluray_compat=0 / constrained_intra=0 / bframes=3 / b_pyramid=2 / b_adapt=2 / b_bias=0 / direct=3 / weightb=1 / open_gop=0 / weightp=0 / keyint=250 / keyint_min=25 / scenecut=40 / intra_refresh=0 / rc_lookahead=50 / rc=crf / mbtree=1 / crf=18.0 / qcomp=0.60 / qpmin=0 / qpmax=69 / qpstep=4 / ip_ratio=1.40 / aq=1:1.00\nLanguage : English\n\nAudio\nID : 2\nFormat : AAC\nFormat/Info : Advanced Audio Codec\nFormat profile : LC\nCodec ID : 40\nDuration : 16mn 42s\nBit rate mode : Variable\nBit rate : 151 Kbps\nMaximum bit rate : 196 Kbps\nChannel(s) : 2 channels\nChannel positions : Front: L R\nSampling rate : 44.1 KHz\nCompression mode : Lossy\nStream size : 18.1 MiB (2%)\nLanguage : English\n\n\n","torrent":{"xt":"urn:btih:a627a51ff32fa1100a7c604c13a3b11603261c74","amp;dn":"Nubiles.Lolly.Boobies.And.Pussy.XXX.1080p.MP4KTR.mp4","amp;tr":["udp%3A%2F%2Ftracker.openbittorrent.com%3A80","udp%3A%2F%2Fopen.demonii.com%3A1337","udp%3A%2F%2Ftracker.coppersurfer.tk%3A6969","udp%3A%2F%2Fexodus.desync.com%3A6969"],"infoHash":"a627a51ff32fa1100a7c604c13a3b11603261c74","infoHashBuffer":{"type":"Buffer","data":[166,39,165,31,243,47,161,16,10,124,96,76,19,163,177,22,3,38,28,116]},"announce":[],"urlList":[]}}